<svg width="114" height="40" viewBox="0 0 114 40" fill="none" xmlns="http://www.w3.org/2000/svg">
<g clip-path="url(#clip0_1941_358)">
<path fill-rule="evenodd" clip-rule="evenodd" d="M0 0H114V40H0V0Z" fill="#D8E5F0"/>
<path fill-rule="evenodd" clip-rule="evenodd" d="M0 0H39V40H0V0Z" fill="white"/>
<path d="M34.5998 12.6836L34.9496 14.7997L33.6541 17.161C33.3447 16.5508 32.902 16.0174 32.3587 15.5997C32.1193 15.3913 31.8328 15.2438 31.5238 15.1696C31.2147 15.0955 30.8922 15.097 30.5838 15.1739C30.0318 15.3799 29.5364 15.7128 29.138 16.1455C28.7395 16.5783 28.4493 17.0987 28.2909 17.6643C27.9352 18.6089 27.7552 19.6102 27.7598 20.6191C27.7258 21.1993 27.7737 21.7813 27.9023 22.3481C27.393 21.2804 27.136 20.1108 27.1509 18.9288C27.1173 17.5248 27.4286 16.1339 28.0577 14.8772C28.2585 14.4062 28.5668 13.9884 28.9581 13.6568C29.3494 13.3253 29.8129 13.0893 30.3118 12.9675C30.6691 12.9498 31.0263 13.006 31.3607 13.1326C31.6952 13.2592 31.9996 13.4534 32.255 13.703C32.6661 14.1153 33.0152 14.5847 33.2914 15.0965L34.5091 12.6836H34.5998Z" fill="#1D1D1B"/>
<path d="M34.7545 24.6573C34.4951 25.133 34.1961 25.5862 33.8607 26.0122C33.3933 26.5774 32.816 27.0426 32.1636 27.3799C31.5793 27.6722 30.9209 27.7845 30.2722 27.7025C29.6634 27.6144 29.0853 27.3796 28.5882 27.0186C28.1353 26.6732 27.7302 26.2697 27.3834 25.8186C27.0336 25.3283 26.4766 24.3477 26.4766 24.3477C26.4766 24.3477 26.7875 25.3283 26.9818 25.7541C27.232 26.3218 27.5402 26.8622 27.9016 27.367C28.507 28.2821 29.4292 28.9434 30.4925 29.2251C31.3432 29.3791 32.2208 29.1988 32.9409 28.7219C33.3037 28.4753 33.6383 28.1897 33.9384 27.8703C34.2202 27.5528 34.4799 27.2165 34.7156 26.8638C34.8322 26.6703 35.0266 26.2961 35.0266 26.2961L34.7156 24.6573H34.7545Z" fill="#1D1D1B"/>
<path d="M11.986 12.7734L14.9656 22.8638L17.9451 12.7734H20.1085L15.1728 29.3541H14.9656L11.8824 19.0831L8.7992 29.3541H8.59193L3.65625 12.7734H5.81966L8.7992 22.8638L10.8201 16.0638L9.82261 12.7734H11.986Z" fill="#0B5196"/>
<path d="M26.2356 24.038C26.2801 25.3984 25.8549 26.7328 25.0308 27.8186C24.7131 28.241 24.3119 28.5942 23.8521 28.8565C23.3922 29.1188 22.8833 29.2847 22.3568 29.3439C21.8302 29.4031 21.297 29.3544 20.79 29.2009C20.283 29.0473 19.8129 28.792 19.4086 28.4508C18.6613 27.7922 18.1139 26.9386 17.8281 25.9864L19.5122 25.2896C19.7172 25.8552 20.0548 26.3638 20.4968 26.7734C20.8846 27.1291 21.3946 27.323 21.9218 27.3154C22.2301 27.2984 22.5283 27.1997 22.7857 27.0296C23.043 26.8595 23.2501 26.6241 23.3856 26.3477C23.7945 25.6473 24.0008 24.8479 23.9815 24.038C24.0287 23.2138 23.801 22.3972 23.3338 21.7154C23.0512 21.3842 22.6935 21.1248 22.2902 20.9588C21.887 20.7927 21.4498 20.7248 21.0149 20.7605H20.1988V19.7799L23.0747 14.825H19.6029L18.6313 16.4638H18.0095V12.7734H26.0283V13.7799L22.984 18.9412C23.9996 19.2445 24.8669 19.9108 25.4195 20.8122C25.9794 21.7753 26.2618 22.8737 26.2356 23.9863V24.038Z" fill="#0B5196"/>
<path d="M66.5763 19.0055H64.2574L62.9619 13.9861C62.9619 13.8055 62.8324 13.4313 62.7158 12.8765C62.5992 12.3216 62.5344 11.9345 62.5215 11.741C62.5215 11.9861 62.4308 12.3603 62.3271 12.8765C62.2235 13.3926 62.1329 13.7668 62.081 13.999L60.7856 19.0055H58.4797L56.0312 9.4442H58.0263L59.3217 14.6055C59.5419 15.5732 59.6974 16.4119 59.7881 17.1087C59.7881 16.8636 59.8788 16.4764 59.9694 15.9603C60.0348 15.5508 60.1256 15.1457 60.2415 14.7474L61.6406 9.39258H63.4801L64.8792 14.7474C64.944 14.9926 65.0217 15.3539 65.1124 15.8442C65.2031 16.3345 65.2679 16.7603 65.3197 17.1345C65.3197 16.799 65.4362 16.3732 65.5269 15.8442C65.6176 15.3152 65.7083 14.9281 65.786 14.5539L67.0815 9.39258H69.0765L66.5763 19.0055Z" fill="#1D1D1B"/>
<path d="M75.5627 19.0063L74.8632 16.7224H71.3654L70.6659 19.0063H68.4766L71.8577 9.40625H74.3579L77.752 19.0063H75.5627ZM74.3839 15.032C73.7361 12.9675 73.3734 11.8062 73.2957 11.5353C73.2179 11.2643 73.1532 11.045 73.1143 10.8901C72.9675 11.4493 72.5357 12.8299 71.8189 15.032H74.3839Z" fill="#1D1D1B"/>
<path d="M83.5063 19.0066H79.1406V17.8582L80.3065 17.3163V11.1356L79.1406 10.5937V9.44531H83.5063V10.5937L82.3404 11.1356V17.3163L83.5063 17.8582V19.0066Z" fill="#1D1D1B"/>
<path d="M85.5938 15.845V14.1934H89.1174V15.8321L85.5938 15.845Z" fill="#1D1D1B"/>
<path d="M96.6122 19.0063L95.9256 16.7224H92.4279L91.7284 19.0063H89.5391L92.9202 9.40625H95.4075L98.8145 19.0063H96.6122ZM95.4334 15.032C94.7857 12.9675 94.4229 11.8062 94.3452 11.5353C94.2675 11.2643 94.2157 11.045 94.1768 10.8901C94.03 11.4493 93.5982 12.8299 92.8814 15.032H95.4334Z" fill="#144072"/>
<path d="M106.446 19.0063L105.746 16.7353H102.248L101.562 19.0063H99.3594L102.753 9.40625H105.241L108.635 19.0063H106.446ZM105.267 15.032C104.619 12.9675 104.256 11.8062 104.178 11.5353C104.101 11.2643 104.036 11.045 104.01 10.8901C103.855 11.4493 103.423 12.8299 102.715 15.032H105.267Z" fill="#144072"/>
<path d="M57.3252 34.0391H55.097L53.8015 29.2004L53.5684 28.1294C53.4518 27.5875 53.4 27.2262 53.3741 27.0455C53.3741 27.2649 53.2834 27.6262 53.1927 28.1294C53.102 28.6326 53.0113 28.9939 52.9595 29.2004L51.664 34.0391H49.4359L47.0781 24.8262H49.0083L50.2002 29.8455C50.4074 30.7746 50.5499 31.5875 50.6406 32.2584C50.6406 32.0262 50.7313 31.652 50.822 31.1488C50.9127 30.6456 50.9904 30.2584 51.0681 29.9875L52.3636 24.8262H54.4104L55.7706 29.9875C55.7706 30.2197 55.9002 30.5681 55.9909 31.0455C56.0815 31.523 56.1463 31.923 56.1852 32.2584C56.1852 31.9359 56.3018 31.5229 56.3924 31.0326C56.4831 30.5423 56.5738 30.1552 56.6386 29.8455L57.8175 24.8262H59.7477L57.3252 34.0391Z" fill="#1D1D1B"/>
<path d="M64.1916 26.3105C63.8587 26.2959 63.5276 26.3651 63.2287 26.5117C62.9298 26.6583 62.6729 26.8776 62.4816 27.1492C62.0393 27.836 61.8262 28.6443 61.8727 29.4589C61.8727 31.5105 62.65 32.5299 64.1916 32.5299C64.9986 32.5016 65.7953 32.3403 66.5493 32.0525V33.6911C65.7256 34.0172 64.8445 34.1752 63.9584 34.1557C63.3865 34.1924 62.8135 34.1028 62.2804 33.8931C61.7474 33.6834 61.2675 33.3589 60.8752 32.9428C60.1003 31.947 59.7179 30.7033 59.8 29.446C59.7806 28.5778 59.9624 27.7168 60.3311 26.9299C60.6565 26.2397 61.1793 25.6607 61.8339 25.2653C62.5355 24.8673 63.3325 24.6666 64.1398 24.6847C65.081 24.694 66.0075 24.9192 66.8473 25.3428L66.2125 26.9299C65.8775 26.7638 65.5312 26.6215 65.1761 26.5041C64.8612 26.3848 64.5283 26.3194 64.1916 26.3105Z" fill="#1D1D1B"/>
<path d="M73.9859 34.0387L73.3253 31.8452H69.9571L69.2964 34.0387H67.1719L70.4364 24.7871H72.833L76.1105 34.0387H73.9859ZM72.846 30.1678C72.2371 28.1807 71.8873 27.0581 71.8096 26.7871C71.7319 26.5162 71.6671 26.3226 71.6412 26.1807C71.4944 26.714 71.0928 28.043 70.4364 30.1678H72.846Z" fill="#1D1D1B"/>
<path d="M80.1276 28.864H83.8066V33.6382C83.2573 33.8177 82.6941 33.9514 82.1226 34.0382C81.5907 34.1159 81.0538 34.1547 80.5162 34.1544C79.9203 34.1879 79.3243 34.0896 78.771 33.8665C78.2178 33.6434 77.721 33.3011 77.3164 32.864C76.5203 31.8732 76.1273 30.6204 76.2153 29.3544C76.1789 28.7161 76.2752 28.0773 76.4981 27.4778C76.721 26.8784 77.0657 26.3311 77.5107 25.8705C77.9858 25.4301 78.5447 25.0891 79.1544 24.8675C79.764 24.6459 80.4121 24.5482 81.0603 24.5801C82.0049 24.5817 82.9394 24.7749 83.8066 25.1479L83.1459 26.7092C82.4959 26.3794 81.7769 26.207 81.0473 26.206C80.6663 26.1901 80.2864 26.2582 79.9348 26.4054C79.5833 26.5526 79.2686 26.7753 79.0134 27.0576C78.4692 27.6961 78.1911 28.518 78.2362 29.3544C78.1832 30.1633 78.402 30.9668 78.858 31.6382C79.073 31.9034 79.3487 32.1133 79.6621 32.2503C79.9754 32.3872 80.3172 32.4473 80.6587 32.4253C81.0932 32.4271 81.5269 32.3882 81.9542 32.3092V30.3866H80.1923L80.1276 28.864Z" fill="#1D1D1B"/>
<path d="M96.4889 34.0394H90.2837V32.6846L92.4601 30.3362C92.7278 30.0523 92.9739 29.7813 93.1985 29.5233C93.4053 29.2927 93.5999 29.0515 93.7815 28.8007C93.9352 28.5823 94.0573 28.3434 94.1442 28.091C94.2375 27.839 94.2857 27.5726 94.2867 27.3039C94.2913 27.1685 94.2684 27.0336 94.2194 26.9072C94.1705 26.7809 94.0964 26.6656 94.0017 26.5684C93.7922 26.3922 93.5243 26.3002 93.2503 26.3104C92.9116 26.3152 92.5788 26.3992 92.2787 26.5555C91.9328 26.7545 91.6111 26.9926 91.3201 27.2652L90.2578 25.9749C90.4434 25.8014 90.638 25.6378 90.8407 25.4846C91.0552 25.3245 91.2853 25.1862 91.5273 25.0717C91.7915 24.9417 92.0697 24.8422 92.3564 24.7749C92.6827 24.6944 93.0178 24.6553 93.3539 24.6587C93.7596 24.6515 94.1634 24.7171 94.5458 24.8523C94.8835 24.9534 95.1936 25.13 95.4526 25.3684C95.7034 25.5916 95.8986 25.8699 96.0226 26.1814C96.1609 26.526 96.2313 26.894 96.2298 27.2652C96.2307 27.6184 96.1648 27.9686 96.0355 28.2975C95.9014 28.6391 95.7275 28.9639 95.5174 29.2652C95.2857 29.5971 95.0302 29.9119 94.753 30.2072C94.468 30.5297 94.1571 30.8394 93.8203 31.162L92.7192 32.2846V32.3749H96.4889V34.0394Z" fill="#1D1D1B"/>
<path d="M98.4534 33.1354C98.4497 32.9634 98.4805 32.7923 98.5441 32.6322C98.5909 32.5019 98.6713 32.3862 98.7773 32.2967C98.8854 32.2139 99.0086 32.1526 99.14 32.1161C99.4208 32.0472 99.7142 32.0472 99.995 32.1161C100.121 32.1554 100.24 32.2165 100.345 32.2967C100.451 32.3862 100.531 32.5019 100.578 32.6322C100.646 32.7909 100.677 32.963 100.669 33.1354C100.675 33.2994 100.644 33.4626 100.578 33.6129C100.531 33.7432 100.451 33.8589 100.345 33.9484C100.244 34.0373 100.124 34.1033 99.995 34.1419C99.7166 34.2282 99.4184 34.2282 99.14 34.1419C99.0056 34.1064 98.8814 34.0401 98.7773 33.9484C98.6713 33.8589 98.5909 33.7432 98.5441 33.6129C98.4838 33.4609 98.453 33.2989 98.4534 33.1354Z" fill="#1D1D1B"/>
<path d="M108.354 29.3155C108.358 29.9908 108.297 30.6648 108.172 31.3284C108.078 31.8566 107.89 32.3637 107.615 32.8252C107.37 33.2202 107.027 33.5448 106.618 33.7672C106.16 33.9956 105.652 34.1065 105.141 34.0897C104.65 34.104 104.164 33.9929 103.729 33.7672C103.322 33.5416 102.979 33.2176 102.731 32.8252C102.453 32.3626 102.256 31.8566 102.148 31.3284C102.012 30.6663 101.947 29.9915 101.954 29.3155C101.945 28.6408 102.002 27.9667 102.122 27.3026C102.22 26.7714 102.408 26.2607 102.679 25.7929C102.924 25.398 103.268 25.0734 103.677 24.851C104.125 24.6342 104.617 24.5215 105.115 24.5215C105.613 24.5215 106.105 24.6342 106.553 24.851C106.957 25.0805 107.299 25.4036 107.55 25.7929C107.84 26.2556 108.042 26.7673 108.146 27.3026C108.293 27.9635 108.362 28.6389 108.354 29.3155ZM103.923 29.3155C103.891 30.1204 103.983 30.9254 104.195 31.7026C104.376 32.2446 104.687 32.5156 105.141 32.5156C105.367 32.5065 105.584 32.4231 105.757 32.2783C105.93 32.1336 106.051 31.9357 106.099 31.7155C106.478 30.1377 106.478 28.4933 106.099 26.9155C106.053 26.6943 105.933 26.4952 105.759 26.3501C105.585 26.2049 105.368 26.1223 105.141 26.1155C104.934 26.1102 104.731 26.1789 104.571 26.3091C104.395 26.4754 104.265 26.6844 104.195 26.9155C104.083 27.2416 104.01 27.5793 103.975 27.922C103.936 28.3865 103.923 28.7865 103.923 29.3155Z" fill="#1D1D1B"/>
</g>
<rect x="0.5" y="0.5" width="113" height="39" stroke="#F3F3F3"/>
<defs>
<clipPath id="clip0_1941_358">
<rect width="114" height="40" fill="white"/>
</clipPath>
</defs>
</svg>
